<svg xmlns="http://www.w3.org/2000/svg"  viewBox="0 0 48 48" width="48px" height="48px"><path d="M 40.458984 7.5585938 C 39.471027 7.5586088 38.483972 7.9333247 37.736328 8.6816406 L 19.248047 27.169922 L 10.265625 18.1875 C 8.7695081 16.691383 6.3136477 16.690868 4.8183594 18.1875 L 2.1289062 20.876953 C 0.63278935 22.37307 0.63227448 24.82893 2.1289062 26.324219 L 16.523438 40.71875 C 18.019343 42.214655 20.474798 42.214655 21.970703 40.71875 L 45.873047 16.816406 C 47.368507 15.320946 47.367992 12.867382 45.873047 11.371094 A 1.0001 1.0001 0 0 0 45.873047 11.369141 L 43.183594 8.6816406 C 42.435535 7.9335822 41.446941 7.5585787 40.458984 7.5585938 z M 40.458984 9.546875 C 40.930777 9.54689 41.40359 9.7297617 41.769531 10.095703 L 44.457031 12.783203 C 45.188086 13.514915 45.187571 14.671804 44.457031 15.402344 L 20.556641 39.304688 C 19.824546 40.036782 18.669595 40.036782 17.9375 39.304688 L 3.5429688 24.910156 C 2.8116006 24.179445 2.8110857 23.022899 3.5429688 22.291016 L 6.2324219 19.601562 C 6.9631335 18.870195 8.1196794 18.86968 8.8515625 19.601562 L 18.539062 29.291016 A 1.0001 1.0001 0 0 0 19.955078 29.291016 L 39.150391 10.095703 C 39.515746 9.7300191 39.987191 9.54686 40.458984 9.546875 z"/></svg>